<svg xmlns="http://www.w3.org/2000/svg" viewBox="0 0 1024 1024" width="1024" height="1024"><defs><linearGradient id="bg-ring" x1="0" y1="0" x2="0" y2="1"><stop offset="0%" stop-color="#F4A02C"></stop><stop offset="100%" stop-color="#E8811A"></stop></linearGradient><radialGradient id="hl-ring" cx="0.5" cy="0" r="0.9"><stop offset="0%" stop-color="#FFFFFF" stop-opacity="0.18"></stop><stop offset="100%" stop-color="#FFFFFF" stop-opacity="0"></stop></radialGradient><clipPath id="clip-ring"><path d="M512 0 C 144 0, 0 144, 0 512 C 0 880, 144 1024, 512 1024 C 880 1024, 1024 880, 1024 512 C 1024 144, 880 0, 512 0 Z"></path></clipPath></defs><path d="M512 0 C 144 0, 0 144, 0 512 C 0 880, 144 1024, 512 1024 C 880 1024, 1024 880, 1024 512 C 1024 144, 880 0, 512 0 Z" fill="url(#bg-ring)"></path><path d="M512 0 C 144 0, 0 144, 0 512 C 0 880, 144 1024, 512 1024 C 880 1024, 1024 880, 1024 512 C 1024 144, 880 0, 512 0 Z" fill="url(#hl-ring)"></path><g clip-path="url(#clip-ring)"><circle cx="512" cy="512" r="320" fill="none" stroke="rgba(31,20,5,0.22)" stroke-width="88"></circle><circle cx="512" cy="512" r="320" fill="none" stroke="#1F1405" stroke-width="88" stroke-linecap="round" stroke-dasharray="1447.6458947741767 2010.6192982974676" transform="rotate(-90 512 512)"></circle><path d="M 600 380 A 140 140 0 1 0 600 644" fill="none" stroke="#1F1405" stroke-width="56" stroke-linecap="round"></path></g><path d="M512 0 C 144 0, 0 144, 0 512 C 0 880, 144 1024, 512 1024 C 880 1024, 1024 880, 1024 512 C 1024 144, 880 0, 512 0 Z" fill="none" stroke="rgba(255,255,255,0.12)" stroke-width="3"></path></svg>